<svg width="12" height="10" viewBox="0 0 12 10" fill="none" xmlns="http://www.w3.org/2000/svg">
<path d="M10.8733 2.0493C10.7004 1.64828 10.4511 1.28487 10.1394 0.979431C9.82739 0.673079 9.45957 0.429625 9.0559 0.262308C8.63732 0.0881223 8.18837 -0.001036 7.73511 9.0821e-06C7.09923 9.0821e-06 6.47882 0.174444 5.93967 0.503933C5.81069 0.582752 5.68815 0.669324 5.57207 0.763648C5.45598 0.669324 5.33345 0.582752 5.20447 0.503933C4.66532 0.174444 4.04491 9.0821e-06 3.40902 9.0821e-06C2.95113 9.0821e-06 2.50743 0.0878729 2.08824 0.262308C1.68323 0.430283 1.31821 0.671908 1.00478 0.979431C0.692634 1.28453 0.443286 1.64802 0.270864 2.0493C0.091578 2.46665 0 2.90985 0 3.36597C0 3.79624 0.0877085 4.2446 0.261836 4.70072C0.407586 5.08189 0.616539 5.47728 0.883534 5.87654C1.3066 6.50839 1.88831 7.16736 2.61062 7.83539C3.80758 8.94273 4.99293 9.70766 5.04324 9.73867L5.34893 9.93507C5.48436 10.0216 5.65849 10.0216 5.79392 9.93507L6.09961 9.73867C6.14991 9.70637 7.33397 8.94273 8.53223 7.83539C9.25453 7.16736 9.83625 6.50839 10.2593 5.87654C10.5263 5.47728 10.7365 5.08189 10.881 4.70072C11.0551 4.2446 11.1428 3.79624 11.1428 3.36597C11.1441 2.90985 11.0526 2.46665 10.8733 2.0493V2.0493Z" fill="#EC2626"/>
</svg>
